<svg xmlns="http://www.w3.org/2000/svg" viewBox="0 0 255.43 69.1"><defs><style>.cls-1{fill:#434d77;}</style></defs><g id="Layer_2" data-name="Layer 2"><g id="Layer_1-2" data-name="Layer 1"><path class="cls-1" d="M86.22,44V20.4H81v28h19.86V44Z"/><path class="cls-1" d="M116.19,20.4v28h5.21v-28Z"/><path class="cls-1" d="M160.37,20.4,151,42,141.65,20.4H136l12.25,28h5.11l12.21-28Z"/><path class="cls-1" d="M182.61,43a3.16,3.16,0,0,0-2.33-.92,3.32,3.32,0,1,0,0,6.64,3.17,3.17,0,0,0,2.31-.94,3.46,3.46,0,0,0,0-4.78Z"/><path class="cls-1" d="M205.33,44V20.4h-5.21v28H220V44Z"/><path class="cls-1" d="M250.3,20.4,242,34.05l-8.2-13.65h-5.56l11,18.21v9.8h5.21V38.53l11-18.13Z"/><circle class="cls-1" cx="38.39" cy="30.58" r="13.75"/><polygon class="cls-1" points="5.2 25.26 0 25.26 0 25.26 0 69.1 24.64 69.1 24.64 63.9 5.2 63.9 5.2 25.26"/><path class="cls-1" d="M66.58,18.67A30.59,30.59,0,0,0,13,13.48a29.93,29.93,0,0,0-3.85,8A29.51,29.51,0,0,0,8,26.8l5,5V30.59a25.21,25.21,0,0,1,2-9.89,25.38,25.38,0,0,1,44.44-4.31A25.22,25.22,0,0,1,62.64,23a25.64,25.64,0,0,1,1.14,7.55,25.29,25.29,0,0,1-2,9.87,25.62,25.62,0,0,1-9.21,11.18A25.26,25.26,0,0,1,38.39,56H37.22l5,5A30.49,30.49,0,0,0,63.75,47.68a30,30,0,0,0,3.85-8A30.36,30.36,0,0,0,69,30.59,30.75,30.75,0,0,0,66.58,18.67Z"/><polygon class="cls-1" points="13 38.4 7.81 33.21 7.81 61.17 35.78 61.17 30.58 55.97 13 38.4"/><line class="cls-1" x1="13" y1="38.4" x2="7.81" y2="33.21"/></g></g></svg>